<?xml version="1.0" encoding="UTF-8"?>
<svg width="366px" height="42px" viewBox="0 0 366 42" version="1.1" xmlns="http://www.w3.org/2000/svg" xmlns:xlink="http://www.w3.org/1999/xlink">
    <title>深圳外代LOGO</title>
    <g id="页面-1" stroke="none" stroke-width="1" fill="none" fill-rule="evenodd">
        <g id="2.深圳外代-首页" transform="translate(-140.000000, -19.000000)" fill="#004F8D">
            <g id="深圳外代LOGO" transform="translate(140.000000, 19.000000)">
                <g id="Group" transform="translate(56.400000, 0.000000)" fill-rule="nonzero">
                    <path d="M18.84,3.24 L17.52,4.8 L13.2,4.8 L13.2,2.16 L13.8,1.32 L9.24,0.72 L9.24,4.68 L4.56,4.68 L1.32,3.84 L1.32,17.64 L5.04,17.64 L5.04,15.84 L9.24,15.84 L9.24,23.76 L13.2,23.76 L13.2,15.84 L17.28,15.84 L17.28,17.64 L21,17.64 L21,6.72 L22.08,5.76 L18.84,3.24 Z M9.24,14.64 L5.04,14.64 L5.04,6.24 L9.24,6.24 L9.24,14.64 Z M17.28,14.64 L13.2,14.64 L13.2,6.24 L17.28,6.24 L17.28,14.64 Z" id="Shape"></path>
                    <path d="M39.12,13.92 C39.12,13.92 39.96,14.64 40.44,15.96 C40.92,17.28 40.92,17.76 41.52,17.76 C42.24,17.76 43.2,16.68 42.84,15.6 C42.48,14.52 39.12,13.68 39.12,13.68 L39.12,13.92 Z" id="Shape"></path>
                    <path d="M43.68,2.4 L30.48,2.4 L30.48,2.28 L26.76,1.32 L26.76,24.24 L30.48,24.24 L30.48,22.8 L43.8,22.8 L43.8,24.24 L47.52,24.24 L47.52,4.08 L48.6,3.12 L45.48,0.48 L43.68,2.4 Z M43.8,21.36 L30.48,21.36 L30.48,3.96 L43.8,3.96 L43.8,21.36 Z" id="Shape"></path>
                    <polygon id="Shape" points="42.48 18.24 38.4 18.24 38.4 12.72 42.24 12.72 42.24 11.4 38.4 11.4 38.4 7.68 42.48 7.68 42.48 6.36 31.08 6.36 31.08 7.68 35.16 7.68 35.16 11.4 31.32 11.4 31.32 12.72 35.16 12.72 35.16 18.24 31.08 18.24 31.08 19.68 42.48 19.68"></polygon>
                    <path d="M112.68,6.24 L109.8,6.24 C110.76,4.32 111.12,2.88 111.12,2.88 L112.56,1.92 L107.76,0.72 C106.68,9.12 102.84,13.92 102.84,13.92 L102.96,14.16 C104.64,13.32 105.96,11.88 107.16,10.44 C107.4,10.8 107.64,11.28 107.88,12 C108.48,14.04 108.36,14.76 109.44,14.88 C110.52,15 111.36,13.32 111,11.76 C110.76,10.8 109.08,9.96 107.88,9.6 C108.36,9 108.72,8.28 109.08,7.68 L112.56,7.68 C112.44,9.12 111.96,11.52 111.36,13.32 C109.8,18.24 103.56,22.08 103.56,22.08 L103.68,22.32 C106.68,21.48 109.44,20.4 112.08,17.76 C115.08,14.76 115.92,7.08 115.92,7.08 L116.88,6.6 L114.12,4.32 L112.68,6.24 Z" id="Shape"></path>
                    <path d="M127.44,14.88 C128.04,14.52 128.4,13.8 128.04,12.48 C127.44,9.48 123.12,8.28 121.2,7.8 L121.2,2.4 L121.92,1.44 L117.48,0.84 L117.48,24.12 L121.08,24.12 L121.08,9.12 C122.88,10.68 124.32,13.56 124.8,14.4 C125.16,14.76 126.36,15.6 127.44,14.88 Z" id="Shape"></path>
                    <path d="M159.48,10.08 L159.48,24 L163.08,24 L163.08,8.64 L163.8,7.68 L161.88,7.44 C163.56,5.28 164.4,3.36 164.4,3.36 L165.96,2.64 L160.92,0.72 C159.6,9.12 155.4,12 155.4,12 L155.52,12.24 C156.96,11.88 158.28,11.04 159.48,10.08 Z" id="Shape"></path>
                    <path d="M168.6,13.8 C169.08,19.44 172.2,24 175.92,24.12 C179.52,24.24 179.76,21.48 179.76,21.48 C177.6,20.64 178.56,18 178.56,18 L177.96,17.88 C177.96,17.88 177,22.8 174.24,19.44 C172.8,17.76 172.08,13.68 171.72,10.2 L179.52,9.48 L179.4,7.8 L171.6,8.52 C171.36,5.88 171.36,3.84 171.36,3.84 L172.68,2.52 L168.24,1.2 C168.24,1.2 168.24,4.68 168.36,8.76 L164.28,9.12 L164.4,10.8 L168.36,10.44 C168.36,11.64 168.48,12.72 168.6,13.8 Z" id="Shape"></path>
                    <path d="M176.28,6.6 C177.12,7.2 178.44,5.64 178.2,4.2 C177.96,2.64 173.16,1.68 173.16,1.68 L172.92,2.04 C175.56,4.08 175.08,5.64 176.28,6.6 Z" id="Shape"></path>
                    <path d="M182.04,19.32 L183.36,22.56 C187.8,21.48 191.16,17.28 191.16,17.28 L190.92,17.16 C190.32,17.52 189.6,17.76 188.76,18 L188.76,12.12 L190.68,12.12 L190.68,10.56 L188.76,10.56 L188.76,4.8 L190.92,4.8 L190.92,3.24 L182.52,3.24 L182.52,4.8 L185.16,4.8 L185.16,10.56 L182.64,10.56 L182.64,12.12 L185.16,12.12 L185.16,18.84 C183.36,19.2 182.04,19.32 182.04,19.32 Z" id="Shape"></path>
                    <path d="M204.96,22.2 L199.2,22.2 L199.2,18.6 L203.52,18.6 L203.52,17.04 L199.2,17.04 L199.2,13.8 L200.76,13.8 L200.76,14.52 L203.88,14.52 L203.88,4.2 L204.72,3.36 L201.96,1.08 L200.4,2.76 L194.52,2.76 L191.28,1.8 L191.28,14.52 L194.52,14.52 L194.52,13.8 L195.96,13.8 L195.96,17.04 L192,17.04 L192,18.6 L196.2,18.6 L196.2,22.2 L189.24,22.2 L189.24,23.76 L204.96,23.76 L204.96,22.2 Z M199.2,4.32 L200.76,4.32 L200.76,7.56 L199.2,7.56 L199.2,4.32 Z M199.2,9 L200.76,9 L200.76,12.24 L199.2,12.24 L199.2,9 Z M196.2,12.36 L194.76,12.36 L194.76,9.12 L196.2,9.12 L196.2,12.36 Z M196.2,7.56 L194.76,7.56 L194.76,4.32 L196.2,4.32 L196.2,7.56 Z" id="Shape"></path>
                    <path d="M224.88,8.64 L216.48,8.64 L216.48,8.52 L215.4,8.28 C216.36,7.2 217.2,6.12 217.68,5.16 L230.88,5.16 L230.88,3.6 L218.4,3.6 C218.76,3 218.88,2.64 218.88,2.64 L220.56,1.68 L214.92,1.36424205e-13 C214.68,1.32 214.32,2.64 213.96,3.72 L208.32,3.72 L208.32,5.28 L213.36,5.28 C211.08,10.8 207.48,12.24 207.48,12.24 L207.6,12.84 C209.4,12.48 210.84,11.76 212.16,10.92 L212.16,24.24 L216.12,24.24 L216.12,18.12 L223.56,18.12 L223.56,16.68 L216.12,16.68 L216.12,14.04 L223.56,14.04 L223.56,12.6 L216.12,12.6 L216.12,10.2 L224.76,10.2 L224.76,20.28 L224.76,20.28 C224.76,20.28 224.76,20.28 224.76,20.4 L224.76,20.64 C224.76,21.12 224.64,21.84 224.04,21.84 C223.08,21.84 219.84,21.84 219.84,21.84 L219.84,22.08 C219.84,22.08 223.56,22.44 223.68,24.84 C223.68,24.84 226.32,24.84 227.52,24.24 C228.72,23.64 228.6,21.6 228.6,21.6 L228.6,21.12 L228.6,21.12 L228.6,10.32 L229.68,9.36 L226.44,6.84 L224.88,8.64 Z" id="Shape"></path>
                    <path d="M243.12,13.68 C243,8.16 240,8.28 240,8.28 C241.56,7.32 242.52,3.6 242.52,3.6 L243.72,2.76 L240.84,0.96 L240.12,2.4 L238.2,2.4 L238.2,2.4 L234.6,1.32 L234.6,23.76 L238.2,23.76 L238.2,17.4 C239.04,18 239.52,19.08 239.52,19.08 C241.44,18.84 243.24,19.68 243.12,13.68 Z M238.08,16.68 L238.08,3.84 L239.88,3.84 C239.64,6.24 238.68,8.52 238.68,8.52 C239.04,8.88 239.88,9.96 240.12,12.12 C240.36,14.28 239.88,16.08 239.28,16.44 C238.92,16.68 238.56,16.68 238.08,16.68 Z" id="Shape"></path>
                    <path d="M243.36,21 L244.92,24.12 C244.92,24.12 248.04,21.84 249.48,19.56 L249.36,19.32 L247.32,20.04 L247.32,11.52 L251.52,11.52 L251.52,12.48 L255.12,12.48 L255.12,4.2 L256.08,3.24 L252.96,0.72 L251.52,2.4 L247.2,2.4 L243.84,1.44 L243.84,20.04 C243.96,20.4 243.84,21 243.36,21 Z M251.64,9.84 L247.44,9.84 L247.44,7.56 L251.64,7.56 L251.64,9.84 Z M247.44,3.96 L251.64,3.96 L251.64,6 L247.44,6 L247.44,3.96 Z" id="Shape"></path>
                    <path d="M251.52,17.04 C253.08,16.44 254.52,15.24 254.52,15.24 L256.2,14.88 L252.84,12.84 C252.36,14.52 251.52,15.84 251.04,16.56 C249.12,14.52 248.64,12.48 248.64,12.48 L248.04,12.48 C249,22.92 255.6,23.76 255.6,23.76 L255.96,23.52 C254.4,21.96 257.04,20.4 257.04,20.4 L257.04,20.16 C254.64,19.56 252.84,18.36 251.52,17.04 Z" id="Shape"></path>
                    <path d="M268.08,3.48 L269.52,2.52 L264.6,0.6 C264.36,6.48 259.2,11.88 259.2,11.88 L259.44,12.24 C265.44,10.08 268.08,3.48 268.08,3.48 Z" id="Shape"></path>
                    <path d="M273.96,0.96 L272.76,0.96 C273.6,9.36 279.84,12.72 279.84,12.72 L280.08,12.6 C279.6,10.92 282.12,9.72 282.12,9.72 L282.24,9.48 C276,6.6 273.96,0.96 273.96,0.96 Z" id="Shape"></path>
                    <path d="M279.72,20.28 C279,17.76 272.88,13.8 272.88,13.8 L272.4,14.28 C272.4,14.28 274.44,17.16 275.52,19.68 C273.72,19.92 269.52,20.28 264.36,20.04 C267.84,17.88 270.84,12 270.84,12 L272.64,11.04 L267.48,9.12 C266.88,11.88 266.04,14.64 264.48,17.28 C262.92,19.8 261.84,19.8 261.72,19.8 L261.96,19.8 C261.84,19.8 261.6,19.8 261.48,19.8 L261.84,22.92 C261.84,22.92 271.2,22.44 275.88,20.4 C276.48,22.2 276.48,23.52 277.56,23.88 C278.88,24.6 280.32,22.32 279.72,20.28 Z" id="Shape"></path>
                    <path d="M303.96,0.48 L302.52,2.16 L285,2.16 L285,3.84 L302.4,3.84 L302.4,19.8 L302.4,19.8 C302.4,19.8 302.4,19.8 302.4,19.92 L302.4,20.28 C302.4,20.76 302.16,21.48 301.08,21.48 L296.76,21.48 L296.76,21.72 C296.76,21.72 300.36,22.08 300.48,24.48 C300.48,24.48 302.88,24.36 304.2,23.88 C305.88,23.16 306.24,21.24 306.24,21.24 L306.24,20.76 L306.24,20.76 L306.24,4.2 L307.32,3.24 L303.96,0.48 Z" id="Shape"></path>
                    <path d="M295.2,19.56 L298.92,19.56 L298.92,12.96 L299.76,12.12 L296.76,9.84 L295.32,11.4 L290.52,11.4 L287.04,10.32 L287.04,19.56 L290.52,19.56 L290.52,18.24 L295.2,18.24 L295.2,19.56 Z M290.52,16.68 L290.52,12.72 L295.2,12.72 L295.2,16.68 L290.52,16.68 Z" id="Shape"></path>
                    <polygon id="Rectangle-path" points="286.08 6.6 301.2 6.6 301.2 8.16 286.08 8.16"></polygon>
                    <path d="M138.6,16.68 L138.6,13.92 L140.64,13.92 L140.64,12.36 L138.6,12.36 L138.6,11.04 L139.68,9.6 L135.48,9 L135.48,12.48 L133.44,12.48 C134.28,11.4 135.12,8.88 135.84,6.72 L140.16,6.72 L140.16,5.16 L136.32,5.16 C136.68,4.08 136.92,3.36 136.92,3.36 L138.36,2.28 L133.44,1.56 C133.32,2.88 133.2,4.2 133.08,5.28 L130.56,5.28 L130.56,6.84 L132.84,6.84 C132.12,10.68 131.04,12.6 130.8,12.96 C130.56,12.96 130.32,12.96 130.2,12.96 L131.52,14.88 L133.32,14.16 L135.6,14.16 L135.6,17.76 C132.72,18.36 130.32,18.6 130.32,18.6 L131.28,21.84 C132.84,21.36 134.28,20.76 135.48,20.04 L135.48,24.6 L138.6,24.6 L138.6,18 C140.16,16.92 141,16.08 141,16.08 L140.88,15.72 C140.16,16.2 139.44,16.44 138.6,16.68 Z" id="Shape"></path>
                    <path d="M139.32,10.8 L139.68,11.16 C143.52,9.72 145.32,6.96 146.04,4.92 C147.6,9.96 152.28,11.64 152.28,11.64 L152.52,11.16 C151.32,9.84 153.12,8.16 153.12,8.16 L153.12,7.8 C149.52,7.44 147.36,4.44 146.52,3 C146.52,2.76 146.52,2.52 146.52,2.52 L148.08,1.56 L143.28,0.12 C142.44,7.92 139.32,10.8 139.32,10.8 Z" id="Shape"></path>
                    <path d="M152.88,21.24 C151.08,21.12 151.56,17.28 151.56,17.28 L150.96,17.16 C150.96,17.16 150.96,18.48 150,19.92 C149.04,21.48 148.08,21.24 148.08,21.24 L146.76,21.24 C145.44,21.24 145.56,19.44 145.56,19.44 L145.56,18 C148.44,16.92 150.72,13.44 150.72,13.44 L151.68,13.08 L148.2,11.4 C148.2,13.56 146.52,15.84 145.56,16.8 L145.56,12.24 L146.28,11.52 L142.32,10.2 L142.32,21.24 C142.32,24.12 145.68,23.88 145.68,23.88 C145.68,23.88 148.2,23.88 148.56,23.88 C149.28,23.88 149.64,23.88 150.48,23.64 C152.28,23.16 152.88,21.24 152.88,21.24 Z" id="Shape"></path>
                    <path d="M59.64,10.44 L59.76,10.92 C63.48,9.96 65.76,7.08 65.76,7.08 L67.08,6.6 L63.48,4.44 C62.4,8.28 59.64,10.44 59.64,10.44 Z" id="Shape"></path>
                    <path d="M56.64,6.48 C57.48,7.08 58.8,5.52 58.56,4.08 C58.32,2.52 53.52,1.56 53.52,1.56 L53.28,1.92 C55.92,3.96 55.44,5.52 56.64,6.48 Z" id="Shape"></path>
                    <path d="M54.48,11.16 C55.2,11.76 56.4,10.32 56.16,9 C55.92,7.68 51.72,6.84 51.72,6.84 L51.6,7.2 C53.88,8.88 53.4,10.32 54.48,11.16 Z" id="Shape"></path>
                    <path d="M56.28,17.88 C56.16,16.32 57.6,11.16 58.92,7.08 C59.52,7.44 60.48,7.44 61.32,6.96 C61.8,6.6 61.8,5.64 61.68,4.56 L71.88,4.56 C71.64,5.28 71.28,5.88 71.04,6.24 C69.24,5.4 66.72,4.8 66.72,4.8 L66.48,5.28 C69.6,7.8 68.88,9.6 70.44,10.8 C71.4,11.52 73.08,9.72 72.84,7.8 C72.72,7.32 72.36,6.96 71.88,6.6 C73.92,5.4 74.64,4.08 74.64,4.08 L75.6,3.6 L72.48,2.28 C72.48,2.52 72.36,2.76 72.36,3 L61.44,3 C61.32,2.4 61.2,1.92 61.2,1.92 L60.84,1.92 C60.36,4.56 59.16,4.92 58.68,6 C57.36,8.88 56.04,11.88 54.96,14.52 C54.12,13.8 52.68,13.8 51.6,13.8 L51.72,14.28 C51.72,14.28 54.36,14.52 53.16,20.16 L53.16,20.16 C53.16,20.4 53.04,20.64 53.04,20.88 C52.92,22.08 53.76,23.28 54.96,23.28 C56.4,23.28 56.64,21.96 56.52,21.24 C56.52,21.12 56.4,19.68 56.28,17.88 Z" id="Shape"></path>
                    <path d="M64.68,16.32 L64.68,23.16 L67.8,23.16 L67.8,15.72 C69.72,20.52 73.56,22.44 73.56,22.44 L73.8,22.32 C73.32,20.88 75.48,19.68 75.48,19.68 L75.6,19.44 C71.88,18 69.72,15.36 68.76,13.8 L74.76,13.8 L74.76,12.24 L67.8,12.24 L67.8,9.96 L68.4,9.24 L64.68,8.52 L64.68,9.6 L64.68,10.56 L64.68,12.24 L58.68,12.24 L58.68,13.8 L62.64,13.8 C61.32,18.48 57,21.72 57,21.72 L57.24,21.96 C61.32,20.64 63.6,18 64.68,16.32 Z" id="Shape"></path>
                    <polygon id="Shape" points="99.96 2.64 100.44 2.16 96.72 1.44 96.72 23.28 99.96 23.28"></polygon>
                    <path d="M90.96,3.24 L91.56,2.4 L87.72,1.56 L87.72,11.04 C87.72,12.24 87.6,13.44 87.48,14.52 L87.48,14.52 C86.88,14.88 86.16,15.12 85.32,15.36 L85.32,9.6 L87.24,9.6 L87.24,8.04 L85.32,8.04 L85.32,2.64 L85.92,1.92 L81.6,1.08 L81.6,2.16 L81.6,3.36 L81.6,8.04 L79.2,8.04 L79.2,9.6 L81.72,9.6 L81.72,16.32 C80.04,16.68 78.72,16.8 78.72,16.8 L80.04,20.04 C83.76,19.08 86.64,16.08 87.48,15.12 C87.12,16.8 86.64,18.48 85.56,20.28 C84.24,22.56 82.32,23.64 82.32,23.64 L82.68,23.88 C82.68,23.88 84.36,23.64 85.92,22.68 C87.12,21.96 88.92,20.04 89.76,18.12 C90.6,16.08 90.96,13.92 90.96,11.28 L90.96,3.24 Z" id="Shape"></path>
                    <polygon id="Shape" points="95.4 4.8 96.12 3.96 92.28 3.12 92.28 4.44 92.28 4.44 92.28 20.76 95.4 20.76"></polygon>
                    <path d="M5.88,38.28 C5.4,38.52 4.92,38.76 4.44,38.76 C3.6,38.76 3,38.28 2.76,37.44 C2.64,36.96 2.52,36.36 2.52,35.64 C2.52,34.68 2.64,33.84 3,33.36 C3.24,32.76 3.72,32.52 4.44,32.52 C5.04,32.52 5.52,32.76 6,33.36 C6.24,33.6 6.48,34.08 6.72,34.56 L6.96,34.56 L6.96,32.16 L6.72,32.16 C6.72,32.28 6.6,32.4 6.6,32.52 C6.48,32.64 6.48,32.64 6.24,32.64 C6.24,32.64 6,32.52 5.52,32.4 C5.04,32.28 4.68,32.16 4.2,32.16 C3.24,32.16 2.4,32.52 1.8,33.12 C1.08,33.84 0.72,34.68 0.72,35.76 C0.72,36.84 1.08,37.8 1.8,38.4 C2.52,39 3.36,39.24 4.32,39.24 C4.92,39.24 5.52,39.12 6.12,38.76 C6.36,38.52 6.72,38.28 7.2,37.8 L6.96,37.56 C6.48,37.8 6.12,38.04 5.88,38.28 Z" id="Shape"></path>
                    <path d="M12.48,32.4 C12.84,32.4 12.96,32.52 13.08,32.52 C13.32,32.64 13.32,32.76 13.32,33.12 L13.32,35.16 L10.92,35.16 L10.92,33.12 C10.92,32.88 11.04,32.64 11.16,32.52 C11.28,32.4 11.52,32.4 11.76,32.4 L11.76,32.16 L8.4,32.16 L8.4,32.4 C8.64,32.4 8.88,32.52 9,32.52 C9.12,32.64 9.24,32.76 9.24,33.12 L9.24,38.04 C9.24,38.28 9.12,38.52 9,38.64 C8.88,38.76 8.64,38.76 8.4,38.76 L8.4,39 L11.76,39 L11.76,38.76 C11.52,38.76 11.28,38.76 11.16,38.64 C10.92,38.52 10.8,38.28 10.8,38.04 L10.8,35.76 L13.2,35.76 L13.2,38.04 C13.2,38.28 13.08,38.52 12.96,38.64 C12.84,38.76 12.6,38.76 12.36,38.76 L12.36,39 L15.84,39 L15.84,38.76 C15.6,38.76 15.36,38.76 15.24,38.64 C15,38.52 15,38.28 15,38.04 L15,33.12 C15,32.88 15.12,32.64 15.24,32.52 C15.36,32.4 15.6,32.4 15.84,32.4 L15.84,32.16 L12.36,32.16 L12.36,32.4 L12.48,32.4 Z" id="Shape"></path>
                    <path d="M17.04,32.4 C17.4,32.4 17.52,32.4 17.64,32.52 C17.88,32.64 17.88,32.76 17.88,33.12 L17.88,38.04 C17.88,38.28 17.76,38.52 17.52,38.64 C17.4,38.76 17.16,38.76 16.92,38.76 L16.92,39 L20.4,39 L20.4,38.76 C20.04,38.76 19.8,38.76 19.68,38.64 C19.56,38.52 19.44,38.4 19.44,38.04 L19.44,33.12 C19.44,32.88 19.56,32.64 19.68,32.52 C19.8,32.52 20.04,32.4 20.28,32.4 L20.28,32.16 L16.8,32.16 L16.8,32.4 L17.04,32.4 Z" id="Shape"></path>
                    <path d="M26.52,32.4 C26.88,32.4 27.12,32.52 27.24,32.64 C27.36,32.76 27.48,33 27.48,33.36 L27.48,36.36 L27.48,36.36 L24,32.16 L21.84,32.16 L21.84,32.4 C21.96,32.4 22.08,32.4 22.08,32.52 C22.2,32.64 22.32,32.76 22.68,33.12 L22.68,37.92 C22.68,38.16 22.68,38.4 22.56,38.52 C22.44,38.64 22.2,38.76 21.84,38.76 L21.84,39 L24.12,39 L24.12,38.76 C23.76,38.76 23.4,38.64 23.28,38.4 C23.16,38.28 23.16,38.04 23.16,37.8 L23.16,33.84 L23.28,33.84 L27.72,39.24 L27.96,39.24 L27.96,33.36 C27.96,33 27.96,32.88 28.08,32.76 C28.2,32.64 28.44,32.64 28.68,32.52 L28.68,32.28 L26.52,32.28 L26.52,32.4 L26.52,32.4 Z" id="Shape"></path>
                    <path d="M35.52,37.32 L33.24,32.04 L33,32.04 L30.72,37.56 C30.6,38.04 30.36,38.28 30.36,38.4 C30.24,38.64 30,38.76 29.76,38.76 L29.76,39 L31.8,39 L31.8,38.76 C31.56,38.76 31.44,38.76 31.32,38.76 C31.08,38.64 31.08,38.64 31.08,38.4 C31.08,38.28 31.08,38.04 31.2,37.8 C31.2,37.68 31.32,37.44 31.44,36.96 L33.72,36.96 L33.96,37.56 C33.96,37.68 34.08,37.8 34.08,37.92 C34.08,38.04 34.2,38.16 34.2,38.28 C34.2,38.4 34.2,38.52 34.08,38.64 C33.96,38.64 33.72,38.76 33.48,38.76 L33.48,39 L36.72,39 L36.72,38.76 C36.48,38.76 36.36,38.64 36.24,38.52 C36,38.28 35.76,37.92 35.52,37.32 Z M31.56,36.6 L32.52,34.32 L32.64,34.32 L33.6,36.6 L31.56,36.6 Z" id="Shape"></path>
                    <path d="M44.28,32.04 C43.2,32.04 42.36,32.4 41.64,33.12 C40.92,33.84 40.68,34.68 40.68,35.76 C40.68,36.72 41.04,37.56 41.64,38.16 C42.36,38.88 43.2,39.24 44.28,39.24 C45.24,39.24 46.08,38.88 46.8,38.28 C47.52,37.56 47.88,36.72 47.88,35.64 C47.88,34.56 47.52,33.72 46.8,33 C46.08,32.4 45.24,32.04 44.28,32.04 Z M45.84,37.56 C45.6,38.4 45,38.88 44.28,38.88 C43.56,38.88 42.96,38.4 42.72,37.56 C42.6,37.08 42.48,36.48 42.48,35.64 C42.48,34.92 42.6,34.2 42.72,33.72 C42.96,32.76 43.56,32.4 44.28,32.4 C44.88,32.4 45.24,32.64 45.6,33.24 C45.96,33.84 46.08,34.56 46.08,35.64 C46.08,36.36 45.96,36.96 45.84,37.56 Z" id="Shape"></path>
                    <path d="M54.6,38.28 C54.12,38.52 53.64,38.76 53.16,38.76 C52.32,38.76 51.72,38.28 51.48,37.44 C51.36,36.96 51.24,36.36 51.24,35.64 C51.24,34.68 51.36,33.84 51.72,33.36 C51.96,32.76 52.44,32.52 53.16,32.52 C53.76,32.52 54.24,32.76 54.72,33.36 C54.96,33.6 55.2,34.08 55.44,34.56 L55.68,34.56 L55.68,32.16 L55.44,32.16 C55.44,32.28 55.32,32.4 55.32,32.52 C55.2,32.64 55.2,32.64 54.96,32.64 C54.96,32.64 54.72,32.52 54.24,32.4 C53.76,32.28 53.4,32.16 52.92,32.16 C51.96,32.16 51.12,32.52 50.52,33.12 C49.8,33.84 49.44,34.68 49.44,35.76 C49.44,36.84 49.8,37.8 50.52,38.4 C51.24,39 52.08,39.24 53.04,39.24 C53.64,39.24 54.24,39.12 54.84,38.76 C55.08,38.52 55.44,38.28 55.92,37.8 L55.68,37.56 C55.08,37.8 54.84,38.04 54.6,38.28 Z" id="Shape"></path>
                    <path d="M62.04,38.28 C61.68,38.52 61.08,38.64 60.48,38.64 C60.12,38.64 59.88,38.64 59.76,38.52 C59.64,38.4 59.64,38.28 59.64,38.04 L59.64,35.64 C60.24,35.64 60.6,35.76 60.84,36 C61.08,36.24 61.2,36.6 61.32,37.2 L61.56,37.2 L61.56,33.84 L61.32,33.84 C61.2,34.44 61.08,34.8 60.84,35.04 C60.6,35.28 60.24,35.4 59.64,35.4 L59.64,33.12 C59.64,32.88 59.64,32.76 59.76,32.76 C59.88,32.64 60,32.64 60.36,32.64 C61.2,32.64 61.68,32.76 62.04,33 C62.4,33.24 62.52,33.72 62.64,34.32 L62.88,34.32 L62.88,32.28 L57.12,32.28 L57.12,32.52 C57.36,32.52 57.6,32.52 57.72,32.64 C57.96,32.76 57.96,32.88 57.96,33.24 L57.96,38.16 C57.96,38.4 57.84,38.64 57.72,38.76 C57.6,38.88 57.36,38.88 57.12,38.88 L57.12,39.12 L63,39.12 L63.36,37.08 L63.12,37.08 C62.88,37.56 62.52,38.04 62.04,38.28 Z" id="Shape"></path>
                    <path d="M70.44,37.32 L68.16,32.04 L67.92,32.04 L65.64,37.56 C65.52,38.04 65.28,38.28 65.28,38.4 C65.16,38.64 64.92,38.76 64.68,38.76 L64.68,39 L66.72,39 L66.72,38.76 C66.48,38.76 66.36,38.76 66.24,38.76 C66,38.64 66,38.64 66,38.4 C66,38.28 66,38.04 66.12,37.8 C66.12,37.68 66.24,37.44 66.36,36.96 L68.64,36.96 L68.88,37.56 C68.88,37.68 69,37.8 69,37.92 C69,38.04 69.12,38.16 69.12,38.28 C69.12,38.4 69.12,38.52 69,38.64 C68.88,38.64 68.64,38.76 68.4,38.76 L68.4,39 L71.64,39 L71.64,38.76 C71.4,38.76 71.28,38.64 71.16,38.52 C70.8,38.28 70.68,37.92 70.44,37.32 Z M66.48,36.6 L67.44,34.32 L67.56,34.32 L68.52,36.6 L66.48,36.6 Z" id="Shape"></path>
                    <path d="M77.4,32.4 C77.76,32.4 78,32.52 78.12,32.64 C78.24,32.76 78.36,33 78.36,33.36 L78.36,36.36 L78.36,36.36 L74.88,32.16 L72.72,32.16 L72.72,32.4 C72.84,32.4 72.96,32.4 72.96,32.52 C73.08,32.64 73.2,32.76 73.56,33.12 L73.56,37.92 C73.56,38.16 73.56,38.4 73.44,38.52 C73.32,38.64 73.08,38.76 72.72,38.76 L72.72,39 L75,39 L75,38.76 C74.64,38.76 74.28,38.64 74.16,38.4 C74.04,38.28 74.04,38.04 74.04,37.8 L74.04,33.84 L74.16,33.84 L78.6,39.24 L78.84,39.24 L78.84,33.36 C78.84,33 78.84,32.88 78.96,32.76 C79.08,32.64 79.32,32.64 79.56,32.52 L79.56,32.28 L77.4,32.28 L77.4,32.4 L77.4,32.4 Z" id="Shape"></path>
                    <path d="M87.6,35.04 L86.88,34.68 C86.28,34.32 85.92,34.08 85.68,33.96 C85.44,33.84 85.44,33.6 85.44,33.24 C85.44,33 85.56,32.76 85.68,32.52 C85.92,32.28 86.16,32.28 86.52,32.28 C87,32.28 87.36,32.52 87.72,32.88 C88.08,33.24 88.32,33.72 88.44,34.2 L88.68,34.2 L88.68,32.04 L88.44,32.04 C88.44,32.16 88.32,32.28 88.32,32.28 C88.32,32.4 88.2,32.4 88.08,32.4 C88.08,32.4 87.84,32.4 87.48,32.28 C87.12,32.16 86.76,32.16 86.4,32.16 C85.68,32.16 85.2,32.4 84.84,32.76 C84.48,33.24 84.36,33.6 84.36,34.08 C84.36,34.56 84.48,34.92 84.72,35.28 C84.96,35.64 85.44,35.88 86.04,36.24 L86.64,36.6 C87,36.84 87.36,36.96 87.48,37.08 C87.72,37.32 87.72,37.56 87.72,37.8 C87.72,38.04 87.6,38.28 87.48,38.52 C87.24,38.76 87,38.88 86.52,38.88 C86.04,38.88 85.68,38.76 85.32,38.4 C84.96,38.04 84.72,37.56 84.6,36.72 L84.36,36.72 L84.36,39.24 L84.6,39.24 C84.6,39.12 84.72,39 84.72,39 C84.72,38.88 84.84,38.88 84.96,38.88 C84.96,38.88 85.08,38.88 85.08,38.88 C85.08,38.88 85.2,38.88 85.2,38.88 L85.44,39 C85.68,39.12 85.8,39.12 86.04,39.12 C86.28,39.12 86.4,39.12 86.64,39.12 C87.48,39.12 88.2,38.88 88.56,38.4 C88.92,37.92 89.16,37.44 89.16,36.96 C89.16,36.36 88.92,36 88.56,35.52 C88.2,35.4 87.84,35.28 87.6,35.04 Z" id="Shape"></path>
                    <path d="M94.32,32.4 C94.68,32.4 94.8,32.52 94.92,32.52 C95.16,32.64 95.16,32.76 95.16,33.12 L95.16,35.16 L92.76,35.16 L92.76,33.12 C92.76,32.88 92.88,32.64 93,32.52 C93.12,32.4 93.36,32.4 93.6,32.4 L93.6,32.16 L90.24,32.16 L90.24,32.4 C90.48,32.4 90.72,32.52 90.84,32.52 C90.96,32.64 91.08,32.76 91.08,33.12 L91.08,38.04 C91.08,38.28 90.96,38.52 90.84,38.64 C90.72,38.76 90.48,38.76 90.24,38.76 L90.24,39 L93.6,39 L93.6,38.76 C93.36,38.76 93.12,38.76 93,38.64 C92.76,38.52 92.64,38.28 92.64,38.04 L92.64,35.76 L95.04,35.76 L95.04,38.04 C95.04,38.28 94.92,38.52 94.8,38.64 C94.68,38.76 94.44,38.76 94.2,38.76 L94.2,39 L97.68,39 L97.68,38.76 C97.44,38.76 97.2,38.76 97.08,38.64 C96.84,38.52 96.84,38.28 96.84,38.04 L96.84,33.12 C96.84,32.88 96.96,32.64 97.08,32.52 C97.2,32.4 97.44,32.4 97.68,32.4 L97.68,32.16 L94.2,32.16 L94.2,32.4 L94.32,32.4 Z" id="Shape"></path>
                    <path d="M98.88,32.4 C99.24,32.4 99.36,32.4 99.48,32.52 C99.72,32.64 99.72,32.76 99.72,33.12 L99.72,38.04 C99.72,38.28 99.6,38.52 99.36,38.64 C99.24,38.76 99,38.76 98.76,38.76 L98.76,39 L102.24,39 L102.24,38.76 C101.88,38.76 101.64,38.76 101.52,38.64 C101.4,38.52 101.28,38.4 101.28,38.04 L101.28,33.12 C101.28,32.88 101.4,32.64 101.52,32.52 C101.64,32.52 101.88,32.4 102.12,32.4 L102.12,32.16 L98.64,32.16 L98.64,32.4 L98.88,32.4 Z" id="Shape"></path>
                    <path d="M108.84,32.64 C108.36,32.4 107.76,32.28 106.92,32.28 L103.68,32.28 L103.68,32.52 C104.04,32.52 104.28,32.64 104.4,32.76 C104.52,32.88 104.52,33.12 104.52,33.48 L104.52,37.92 C104.52,38.28 104.52,38.52 104.4,38.64 C104.28,38.76 104.04,38.88 103.68,38.88 L103.68,39.12 L107.04,39.12 L107.04,38.88 C106.68,38.88 106.44,38.76 106.32,38.64 C106.2,38.52 106.08,38.28 106.08,37.92 L106.08,36 C106.68,36 107.16,36 107.4,36 C107.76,36 108,35.88 108.36,35.76 C108.72,35.64 109.08,35.4 109.2,35.04 C109.32,34.8 109.44,34.44 109.44,34.08 C109.44,33.36 109.2,32.88 108.84,32.64 Z M107.28,35.4 C107.04,35.52 106.68,35.64 106.08,35.64 L106.08,32.88 C106.08,32.76 106.08,32.64 106.2,32.64 C106.32,32.64 106.44,32.52 106.68,32.52 C107.16,32.52 107.4,32.64 107.52,33 C107.64,33.24 107.76,33.6 107.76,34.08 C107.76,34.68 107.52,35.16 107.28,35.4 Z" id="Shape"></path>
                    <path d="M115.68,32.64 C115.2,32.4 114.6,32.28 113.76,32.28 L110.52,32.28 L110.52,32.52 C110.88,32.52 111.12,32.64 111.24,32.76 C111.36,32.88 111.36,33.12 111.36,33.48 L111.36,37.92 C111.36,38.28 111.36,38.52 111.24,38.64 C111.12,38.76 110.88,38.88 110.52,38.88 L110.52,39.12 L113.88,39.12 L113.88,38.88 C113.52,38.88 113.28,38.76 113.16,38.64 C113.04,38.52 112.92,38.28 112.92,37.92 L112.92,36 C113.52,36 114,36 114.24,36 C114.6,36 114.84,35.88 115.2,35.76 C115.56,35.64 115.92,35.4 116.04,35.04 C116.16,34.8 116.28,34.44 116.28,34.08 C116.4,33.36 116.16,32.88 115.68,32.64 Z M114.12,35.4 C113.88,35.52 113.52,35.64 112.92,35.64 L112.92,32.88 C112.92,32.76 112.92,32.64 113.04,32.64 C113.16,32.64 113.28,32.52 113.52,32.52 C114,32.52 114.24,32.64 114.36,33 C114.48,33.24 114.6,33.6 114.6,34.08 C114.6,34.68 114.48,35.16 114.12,35.4 Z" id="Shape"></path>
                    <path d="M117.36,32.4 C117.72,32.4 117.84,32.4 117.96,32.52 C118.2,32.64 118.2,32.76 118.2,33.12 L118.2,38.04 C118.2,38.28 118.08,38.52 117.84,38.64 C117.72,38.76 117.48,38.76 117.24,38.76 L117.24,39 L120.72,39 L120.72,38.76 C120.36,38.76 120.12,38.76 120,38.64 C119.88,38.52 119.76,38.4 119.76,38.04 L119.76,33.12 C119.76,32.88 119.88,32.64 120,32.52 C120.12,32.52 120.36,32.4 120.6,32.4 L120.6,32.16 L117.12,32.16 L117.12,32.4 L117.36,32.4 Z" id="Shape"></path>
                    <path d="M126.84,32.4 C127.2,32.4 127.44,32.52 127.56,32.64 C127.68,32.76 127.8,33 127.8,33.36 L127.8,36.36 L127.8,36.36 L124.32,32.16 L122.16,32.16 L122.16,32.4 C122.28,32.4 122.4,32.4 122.4,32.52 C122.52,32.64 122.64,32.76 123,33.12 L123,37.92 C123,38.16 123,38.4 122.88,38.52 C122.76,38.64 122.52,38.76 122.16,38.76 L122.16,39 L124.44,39 L124.44,38.76 C124.08,38.76 123.72,38.64 123.6,38.4 C123.48,38.28 123.48,38.04 123.48,37.8 L123.48,33.84 L123.6,33.84 L128.04,39.24 L128.28,39.24 L128.28,33.36 C128.28,33 128.28,32.88 128.4,32.76 C128.52,32.64 128.76,32.64 129,32.52 L129,32.28 L126.84,32.28 L126.84,32.4 L126.84,32.4 Z" id="Shape"></path>
                    <path d="M134.04,36.36 C134.4,36.36 134.64,36.36 134.76,36.48 C135,36.6 135,36.72 135,37.08 L135,38.16 C135,38.4 135,38.52 134.88,38.64 C134.76,38.76 134.4,38.88 134.04,38.88 C133.2,38.88 132.72,38.52 132.48,37.92 C132.24,37.32 132.12,36.48 132.12,35.64 C132.12,34.56 132.24,33.84 132.6,33.24 C132.84,32.64 133.32,32.4 134.04,32.4 C134.64,32.4 135.12,32.64 135.6,33.24 C135.84,33.48 136.08,33.96 136.32,34.44 L136.56,34.44 L136.56,32.04 L136.32,32.04 C136.32,32.16 136.2,32.28 136.2,32.4 C136.08,32.52 136.08,32.52 135.96,32.52 C135.84,32.52 135.6,32.4 135.24,32.28 C134.88,32.16 134.4,32.04 134.04,32.04 C132.96,32.04 132.12,32.4 131.52,33.12 C130.92,33.84 130.56,34.68 130.56,35.64 C130.56,36.6 130.92,37.44 131.52,38.16 C132.24,38.88 133.08,39.24 134.16,39.24 C134.76,39.24 135.36,39.12 135.84,39 C136.32,38.88 136.68,38.76 136.92,38.64 L136.92,37.32 C136.92,36.96 136.92,36.72 137.04,36.6 C137.16,36.48 137.4,36.36 137.76,36.36 L137.76,36.12 L134.28,36.12 L134.28,36.36 L134.04,36.36 Z" id="Shape"></path>
                    <path d="M147.24,37.32 L144.96,32.04 L144.72,32.04 L142.44,37.56 C142.32,38.04 142.08,38.28 142.08,38.4 C141.96,38.64 141.72,38.76 141.48,38.76 L141.48,39 L143.52,39 L143.52,38.76 C143.28,38.76 143.16,38.76 143.04,38.76 C142.8,38.64 142.8,38.64 142.8,38.4 C142.8,38.28 142.8,38.04 142.92,37.8 C142.92,37.68 143.04,37.44 143.16,36.96 L145.44,36.96 L145.68,37.56 C145.68,37.68 145.8,37.8 145.8,37.92 C145.8,38.04 145.92,38.16 145.92,38.28 C145.92,38.4 145.92,38.52 145.8,38.64 C145.68,38.64 145.44,38.76 145.2,38.76 L145.2,39 L148.44,39 L148.44,38.76 C148.2,38.76 148.08,38.64 147.96,38.52 C147.6,38.28 147.48,37.92 147.24,37.32 Z M143.28,36.6 L144.24,34.32 L144.36,34.32 L145.32,36.6 L143.28,36.6 Z" id="Shape"></path>
                    <path d="M153.48,36.36 C153.84,36.36 154.08,36.36 154.2,36.48 C154.44,36.6 154.44,36.72 154.44,37.08 L154.44,38.16 C154.44,38.4 154.44,38.52 154.32,38.64 C154.2,38.76 153.84,38.88 153.48,38.88 C152.64,38.88 152.16,38.52 151.92,37.92 C151.68,37.32 151.56,36.48 151.56,35.64 C151.56,34.56 151.68,33.84 152.04,33.24 C152.28,32.64 152.76,32.4 153.48,32.4 C154.08,32.4 154.56,32.64 155.04,33.24 C155.28,33.48 155.52,33.96 155.76,34.44 L156,34.44 L156,32.04 L155.76,32.04 C155.76,32.16 155.64,32.28 155.64,32.4 C155.52,32.52 155.52,32.52 155.4,32.52 C155.28,32.52 155.04,32.4 154.68,32.28 C154.32,32.16 153.84,32.04 153.48,32.04 C152.4,32.04 151.56,32.4 150.96,33.12 C150.36,33.84 150,34.68 150,35.64 C150,36.6 150.36,37.44 150.96,38.16 C151.68,38.88 152.52,39.24 153.6,39.24 C154.2,39.24 154.8,39.12 155.28,39 C155.76,38.88 156.12,38.76 156.36,38.64 L156.36,37.32 C156.36,36.96 156.36,36.72 156.48,36.6 C156.6,36.48 156.84,36.36 157.2,36.36 L157.2,36.12 L153.72,36.12 L153.72,36.36 L153.48,36.36 Z" id="Shape"></path>
                    <path d="M162.96,38.28 C162.6,38.52 162,38.64 161.4,38.64 C161.04,38.64 160.8,38.64 160.68,38.52 C160.56,38.4 160.56,38.28 160.56,38.04 L160.56,35.64 C161.16,35.64 161.52,35.76 161.76,36 C162,36.24 162.12,36.6 162.24,37.2 L162.48,37.2 L162.48,33.84 L162.24,33.84 C162.12,34.44 162,34.8 161.76,35.04 C161.52,35.28 161.16,35.4 160.56,35.4 L160.56,33.12 C160.56,32.88 160.56,32.76 160.68,32.76 C160.8,32.64 160.92,32.64 161.28,32.64 C162.12,32.64 162.6,32.76 162.96,33 C163.32,33.24 163.44,33.72 163.56,34.32 L163.8,34.32 L163.8,32.28 L158.04,32.28 L158.04,32.52 C158.28,32.52 158.52,32.52 158.64,32.64 C158.88,32.76 158.88,32.88 158.88,33.24 L158.88,38.16 C158.88,38.4 158.76,38.64 158.64,38.76 C158.52,38.88 158.28,38.88 158.04,38.88 L158.04,39.12 L163.92,39.12 L164.28,37.08 L164.04,37.08 C163.8,37.56 163.44,38.04 162.96,38.28 Z" id="Shape"></path>
                    <path d="M170.28,32.4 C170.64,32.4 170.88,32.52 171,32.64 C171.12,32.76 171.24,33 171.24,33.36 L171.24,36.36 L171.24,36.36 L167.76,32.16 L165.6,32.16 L165.6,32.4 C165.72,32.4 165.84,32.4 165.84,32.52 C165.96,32.64 166.08,32.76 166.44,33.12 L166.44,37.92 C166.44,38.16 166.44,38.4 166.32,38.52 C166.2,38.64 165.96,38.76 165.6,38.76 L165.6,39 L167.88,39 L167.88,38.76 C167.52,38.76 167.16,38.64 167.04,38.4 C166.92,38.28 166.92,38.04 166.92,37.8 L166.92,33.84 L167.04,33.84 L171.48,39.24 L171.72,39.24 L171.72,33.36 C171.72,33 171.72,32.88 171.84,32.76 C171.96,32.64 172.2,32.64 172.44,32.52 L172.44,32.28 L170.28,32.28 L170.28,32.4 L170.28,32.4 Z" id="Shape"></path>
                    <path d="M178.92,38.28 C178.44,38.52 177.96,38.76 177.48,38.76 C176.64,38.76 176.04,38.28 175.8,37.44 C175.68,36.96 175.56,36.36 175.56,35.64 C175.56,34.68 175.68,33.84 176.04,33.36 C176.28,32.76 176.76,32.52 177.48,32.52 C178.08,32.52 178.56,32.76 179.04,33.36 C179.28,33.6 179.52,34.08 179.76,34.56 L180,34.56 L180,32.16 L179.76,32.16 C179.76,32.28 179.64,32.4 179.64,32.52 C179.52,32.64 179.52,32.64 179.28,32.64 C179.28,32.64 179.04,32.52 178.56,32.4 C178.08,32.28 177.72,32.16 177.24,32.16 C176.28,32.16 175.44,32.52 174.84,33.12 C174.12,33.84 173.76,34.68 173.76,35.76 C173.76,36.84 174.12,37.8 174.84,38.4 C175.56,39 176.4,39.24 177.36,39.24 C177.96,39.24 178.56,39.12 179.16,38.76 C179.4,38.52 179.76,38.28 180.24,37.8 L180,37.56 C179.52,37.8 179.28,38.04 178.92,38.28 Z" id="Shape"></path>
                    <path d="M186.24,32.4 C186.6,32.4 186.72,32.4 186.84,32.52 C186.96,32.52 187.08,32.64 187.08,32.88 C187.08,33 187.08,33.12 186.96,33.36 C186.84,33.48 186.84,33.6 186.72,33.72 L185.64,35.52 L185.64,35.52 L184.32,33.12 C184.2,33 184.2,32.88 184.2,32.88 C184.2,32.88 184.2,32.76 184.2,32.76 C184.2,32.64 184.2,32.64 184.32,32.52 C184.44,32.52 184.68,32.52 185.04,32.4 L185.04,32.16 L181.68,32.16 L181.68,32.4 C181.8,32.4 181.92,32.4 182.04,32.52 C182.16,32.64 182.4,32.76 182.52,33 L184.32,36.36 L184.32,37.8 C184.32,38.16 184.2,38.4 184.08,38.52 C183.96,38.64 183.72,38.76 183.36,38.76 L183.36,39 L186.84,39 L186.84,38.76 C186.48,38.76 186.24,38.64 186.12,38.64 C186,38.52 185.88,38.28 185.88,37.92 L185.88,36 L187.8,32.88 C187.92,32.76 188.04,32.64 188.16,32.64 C188.28,32.64 188.4,32.52 188.52,32.52 L188.52,32.28 L186.36,32.28 L186.36,32.4 L186.24,32.4 Z" id="Shape"></path>
                    <path d="M196.08,35.04 L195.36,34.68 C194.76,34.32 194.4,34.08 194.16,33.96 C193.92,33.84 193.92,33.6 193.92,33.24 C193.92,33 194.04,32.76 194.16,32.52 C194.4,32.28 194.64,32.28 195,32.28 C195.48,32.28 195.84,32.52 196.2,32.88 C196.56,33.24 196.8,33.72 196.92,34.2 L197.16,34.2 L197.16,32.04 L196.8,32.04 C196.8,32.16 196.68,32.28 196.68,32.28 C196.68,32.4 196.56,32.4 196.44,32.4 C196.44,32.4 196.2,32.4 195.84,32.28 C195.48,32.16 195.12,32.16 194.76,32.16 C194.04,32.16 193.56,32.4 193.2,32.76 C192.84,33.24 192.72,33.6 192.72,34.08 C192.72,34.56 192.84,34.92 193.08,35.28 C193.32,35.64 193.8,35.88 194.4,36.24 L195,36.6 C195.36,36.84 195.72,36.96 195.84,37.08 C196.08,37.32 196.08,37.56 196.08,37.8 C196.08,38.04 195.96,38.28 195.84,38.52 C195.6,38.76 195.36,38.88 194.88,38.88 C194.4,38.88 194.04,38.76 193.68,38.4 C193.32,38.04 193.08,37.56 192.96,36.72 L192.72,36.72 L192.72,39.24 L192.96,39.24 C192.96,39.12 193.08,39 193.08,39 C193.08,38.88 193.2,38.88 193.32,38.88 C193.32,38.88 193.44,38.88 193.44,38.88 C193.44,38.88 193.56,38.88 193.56,38.88 L193.8,39 C194.04,39.12 194.16,39.12 194.4,39.12 C194.64,39.12 194.76,39.12 195,39.12 C195.84,39.12 196.56,38.88 196.92,38.4 C197.28,37.92 197.52,37.44 197.52,36.96 C197.52,36.36 197.28,36 196.92,35.52 C196.68,35.4 196.44,35.28 196.08,35.04 Z" id="Shape"></path>
                    <path d="M202.92,32.4 C203.28,32.4 203.4,32.52 203.52,32.52 C203.76,32.64 203.76,32.76 203.76,33.12 L203.76,35.16 L201.36,35.16 L201.36,33.12 C201.36,32.88 201.48,32.64 201.6,32.52 C201.72,32.4 201.96,32.4 202.2,32.4 L202.2,32.16 L198.84,32.16 L198.84,32.4 C199.08,32.4 199.32,32.52 199.44,32.52 C199.56,32.64 199.68,32.76 199.68,33.12 L199.68,38.04 C199.68,38.28 199.56,38.52 199.44,38.64 C199.32,38.76 199.08,38.76 198.84,38.76 L198.84,39 L202.2,39 L202.2,38.76 C201.96,38.76 201.72,38.76 201.6,38.64 C201.36,38.52 201.24,38.28 201.24,38.04 L201.24,35.76 L203.64,35.76 L203.64,38.04 C203.64,38.28 203.52,38.52 203.4,38.64 C203.28,38.76 203.04,38.76 202.8,38.76 L202.8,39 L206.28,39 L206.28,38.76 C206.04,38.76 205.8,38.76 205.68,38.64 C205.44,38.52 205.44,38.28 205.44,38.04 L205.44,33.12 C205.44,32.88 205.56,32.64 205.68,32.52 C205.8,32.4 206.04,32.4 206.28,32.4 L206.28,32.16 L202.8,32.16 L202.8,32.4 L202.92,32.4 Z" id="Shape"></path>
                    <path d="M212.4,38.28 C212.04,38.52 211.44,38.64 210.84,38.64 C210.48,38.64 210.24,38.64 210.12,38.52 C210,38.4 210,38.28 210,38.04 L210,35.64 C210.6,35.64 210.96,35.76 211.2,36 C211.44,36.24 211.56,36.6 211.68,37.2 L211.92,37.2 L211.92,33.84 L211.68,33.84 C211.56,34.44 211.44,34.8 211.2,35.04 C210.96,35.28 210.6,35.4 210,35.4 L210,33.12 C210,32.88 210,32.76 210.12,32.76 C210.24,32.64 210.36,32.64 210.72,32.64 C211.56,32.64 212.04,32.76 212.4,33 C212.76,33.24 212.88,33.72 213,34.32 L213.24,34.32 L213.24,32.28 L207.48,32.28 L207.48,32.52 C207.72,32.52 207.96,32.52 208.08,32.64 C208.32,32.76 208.32,32.88 208.32,33.24 L208.32,38.16 C208.32,38.4 208.2,38.64 208.08,38.76 C207.96,38.88 207.72,38.88 207.48,38.88 L207.48,39.12 L213.36,39.12 L213.72,37.08 L213.48,37.08 C213.12,37.56 212.76,38.04 212.4,38.28 Z" id="Shape"></path>
                    <path d="M219.72,32.4 C220.08,32.4 220.32,32.52 220.44,32.64 C220.56,32.76 220.68,33 220.68,33.36 L220.68,36.36 L220.68,36.36 L217.2,32.16 L215.04,32.16 L215.04,32.4 C215.16,32.4 215.28,32.4 215.28,32.52 C215.4,32.64 215.52,32.76 215.88,33.12 L215.88,37.92 C215.88,38.16 215.88,38.4 215.76,38.52 C215.64,38.64 215.4,38.76 215.04,38.76 L215.04,39 L217.32,39 L217.32,38.76 C216.96,38.76 216.6,38.64 216.48,38.4 C216.36,38.28 216.36,38.04 216.36,37.8 L216.36,33.84 L216.48,33.84 L220.92,39.24 L221.16,39.24 L221.16,33.36 C221.16,33 221.16,32.88 221.28,32.76 C221.4,32.64 221.64,32.64 221.88,32.52 L221.88,32.28 L219.72,32.28 L219.72,32.4 L219.72,32.4 Z" id="Shape"></path>
                    <path d="M227.88,38.28 C227.4,38.52 226.44,38.64 225.12,38.64 L228.96,32.4 L228.96,32.28 L223.56,32.28 L223.32,34.32 L223.56,34.32 C223.8,33.84 223.92,33.48 224.04,33.24 C224.28,32.88 224.64,32.76 225.12,32.64 C225.24,32.64 225.36,32.64 225.48,32.52 C225.6,32.52 226.08,32.52 226.92,32.52 L222.96,38.76 L222.96,38.88 L228.84,38.88 L229.08,36.48 L228.84,36.48 C228.72,37.56 228.36,38.16 227.88,38.28 Z" id="Shape"></path>
                    <path d="M234.48,32.4 C234.84,32.4 234.96,32.52 235.08,32.52 C235.32,32.64 235.32,32.76 235.32,33.12 L235.32,35.16 L232.92,35.16 L232.92,33.12 C232.92,32.88 233.04,32.64 233.16,32.52 C233.28,32.4 233.52,32.4 233.76,32.4 L233.76,32.16 L230.4,32.16 L230.4,32.4 C230.64,32.4 230.88,32.52 231,32.52 C231.12,32.64 231.24,32.76 231.24,33.12 L231.24,38.04 C231.24,38.28 231.12,38.52 231,38.64 C230.88,38.76 230.64,38.76 230.4,38.76 L230.4,39 L233.76,39 L233.76,38.76 C233.52,38.76 233.28,38.76 233.16,38.64 C232.92,38.52 232.8,38.28 232.8,38.04 L232.8,35.76 L235.2,35.76 L235.2,38.04 C235.2,38.28 235.08,38.52 234.96,38.64 C234.84,38.76 234.6,38.76 234.36,38.76 L234.36,39 L237.84,39 L237.84,38.76 C237.6,38.76 237.36,38.76 237.24,38.64 C237,38.52 237,38.28 237,38.04 L237,33.12 C237,32.88 237.12,32.64 237.24,32.52 C237.36,32.4 237.6,32.4 237.84,32.4 L237.84,32.16 L234.36,32.16 L234.36,32.4 L234.48,32.4 Z" id="Shape"></path>
                    <path d="M243.96,38.28 C243.6,38.52 243,38.64 242.4,38.64 C242.04,38.64 241.8,38.64 241.68,38.52 C241.56,38.4 241.56,38.28 241.56,38.04 L241.56,35.64 C242.16,35.64 242.52,35.76 242.76,36 C243,36.24 243.12,36.6 243.24,37.2 L243.48,37.2 L243.48,33.84 L243.24,33.84 C243.12,34.44 243,34.8 242.76,35.04 C242.52,35.28 242.16,35.4 241.56,35.4 L241.56,33.12 C241.56,32.88 241.56,32.76 241.68,32.76 C241.8,32.64 241.92,32.64 242.28,32.64 C243.12,32.64 243.6,32.76 243.96,33 C244.32,33.24 244.44,33.72 244.56,34.32 L244.8,34.32 L244.8,32.28 L239.04,32.28 L239.04,32.52 C239.28,32.52 239.52,32.52 239.64,32.64 C239.88,32.76 239.88,32.88 239.88,33.24 L239.88,38.16 C239.88,38.4 239.76,38.64 239.64,38.76 C239.52,38.88 239.28,38.88 239.04,38.88 L239.04,39.12 L244.92,39.12 L245.28,37.08 L245.04,37.08 C244.68,37.56 244.32,38.04 243.96,38.28 Z" id="Shape"></path>
                    <path d="M251.28,32.4 C251.64,32.4 251.88,32.52 252,32.64 C252.12,32.76 252.24,33 252.24,33.36 L252.24,36.36 L252.24,36.36 L248.76,32.16 L246.6,32.16 L246.6,32.4 C246.72,32.4 246.84,32.4 246.84,32.52 C246.96,32.64 247.08,32.76 247.44,33.12 L247.44,37.92 C247.44,38.16 247.44,38.4 247.32,38.52 C247.2,38.64 246.96,38.76 246.6,38.76 L246.6,39 L248.88,39 L248.88,38.76 C248.52,38.76 248.16,38.64 248.04,38.4 C247.92,38.28 247.92,38.04 247.92,37.8 L247.92,33.84 L248.04,33.84 L252.48,39.24 L252.72,39.24 L252.72,33.36 C252.72,33 252.72,32.88 252.84,32.76 C252.96,32.64 253.2,32.64 253.44,32.52 L253.44,32.28 L251.28,32.28 L251.28,32.4 L251.28,32.4 Z" id="Shape"></path>
                    <path d="M263.28,38.28 C262.8,38.52 262.32,38.76 261.84,38.76 C261,38.76 260.4,38.28 260.16,37.44 C260.04,36.96 259.92,36.36 259.92,35.64 C259.92,34.68 260.04,33.84 260.4,33.36 C260.64,32.76 261.12,32.52 261.84,32.52 C262.44,32.52 262.92,32.76 263.4,33.36 C263.64,33.6 263.88,34.08 264.12,34.56 L264.36,34.56 L264.36,32.16 L264,32.16 C264,32.28 263.88,32.4 263.88,32.52 C263.76,32.64 263.76,32.64 263.52,32.64 C263.52,32.64 263.28,32.52 262.8,32.4 C262.32,32.28 261.96,32.16 261.48,32.16 C260.52,32.16 259.68,32.52 259.08,33.12 C258.36,33.84 258,34.68 258,35.76 C258,36.84 258.36,37.8 259.08,38.4 C259.8,39 260.64,39.24 261.6,39.24 C262.2,39.24 262.8,39.12 263.4,38.76 C263.64,38.52 264,38.28 264.48,37.8 L264.24,37.56 C263.76,37.8 263.52,38.04 263.28,38.28 Z" id="Shape"></path>
                    <path d="M269.52,32.04 C268.44,32.04 267.6,32.4 266.88,33.12 C266.16,33.84 265.92,34.68 265.92,35.76 C265.92,36.72 266.28,37.56 266.88,38.16 C267.6,38.88 268.44,39.24 269.52,39.24 C270.48,39.24 271.32,38.88 272.04,38.28 C272.76,37.56 273.12,36.72 273.12,35.64 C273.12,34.56 272.76,33.72 272.04,33 C271.44,32.4 270.6,32.04 269.52,32.04 Z M271.08,37.56 C270.84,38.4 270.24,38.88 269.52,38.88 C268.8,38.88 268.2,38.4 267.96,37.56 C267.84,37.08 267.72,36.48 267.72,35.64 C267.72,34.92 267.84,34.2 267.96,33.72 C268.2,32.76 268.8,32.4 269.52,32.4 C270.12,32.4 270.48,32.64 270.84,33.24 C271.2,33.84 271.32,34.56 271.32,35.64 C271.32,36.36 271.32,36.96 271.08,37.56 Z" id="Shape"></path>
                    <path d="M275.88,37.44 C275.64,37.44 275.4,37.56 275.28,37.68 C275.16,37.8 275.04,38.04 275.04,38.28 C275.04,38.52 275.16,38.76 275.28,38.88 C275.4,39 275.64,39.12 275.88,39.12 C276.12,39.12 276.36,39 276.48,38.88 C276.6,38.76 276.72,38.52 276.72,38.28 C276.72,38.04 276.6,37.8 276.48,37.68 C276.36,37.56 276.12,37.44 275.88,37.44 Z" id="Shape"></path>
                    <path d="M279.12,37.44 C278.88,37.44 278.64,37.56 278.52,37.68 C278.4,37.8 278.28,38.04 278.28,38.28 C278.28,38.52 278.4,38.76 278.52,38.88 C278.64,39 278.88,39.12 279,39.12 C279,39.12 279,39.12 279.12,39.12 C279.12,39.12 279.24,39.12 279.24,39.12 C279.36,39.12 279.36,39.12 279.36,39.12 C279.36,39.12 279.36,39.24 279.36,39.24 C279.36,39.48 279.24,39.72 279,39.96 C278.88,40.08 278.64,40.32 278.28,40.56 L278.4,40.8 C278.88,40.56 279.24,40.32 279.36,40.08 C279.84,39.6 279.96,39.12 279.96,38.64 C279.96,38.28 279.84,38.04 279.72,37.8 C279.72,37.56 279.48,37.44 279.12,37.44 Z" id="Shape"></path>
                    <path d="M289.2,38.28 C288.84,38.52 288.24,38.64 287.64,38.64 C287.28,38.64 287.04,38.64 286.92,38.52 C286.8,38.4 286.8,38.28 286.8,38.04 L286.8,33.24 C286.8,32.88 286.92,32.64 287.04,32.52 C287.16,32.4 287.4,32.4 287.88,32.4 L287.88,32.16 L284.4,32.16 L284.4,32.4 C284.64,32.4 284.88,32.4 285,32.52 C285.24,32.64 285.24,32.76 285.24,33.12 L285.24,38.04 C285.24,38.28 285.12,38.52 285,38.64 C284.88,38.76 284.64,38.76 284.4,38.76 L284.4,39 L290.28,39 L290.64,36.72 L290.4,36.72 C289.92,37.44 289.56,38.04 289.2,38.28 Z" id="Shape"></path>
                    <path d="M290.88,32.16 L290.88,34.2 L291.12,34.2 C291.24,33.48 291.48,33 291.96,32.76 C292.2,32.64 292.56,32.52 293.04,32.52 L293.04,37.8 C293.04,38.16 292.92,38.4 292.8,38.52 C292.68,38.64 292.44,38.76 291.96,38.76 L291.96,39 L295.56,39 L295.56,38.76 C295.2,38.76 294.84,38.64 294.72,38.52 C294.6,38.4 294.48,38.16 294.48,37.8 L294.48,32.52 C294.96,32.52 295.32,32.64 295.56,32.76 C296.04,33 296.28,33.48 296.4,34.2 L296.64,34.2 L296.64,32.16 L290.88,32.16 Z" id="Shape"></path>
                    <path d="M301.32,32.16 L298.2,32.16 L298.2,32.4 C298.44,32.4 298.68,32.52 298.8,32.52 C299.04,32.64 299.04,32.76 299.04,33.12 L299.04,38.04 C299.04,38.28 298.92,38.52 298.8,38.64 C298.68,38.64 298.56,38.76 298.2,38.76 L298.2,39 L301.32,39 C302.52,39 303.36,38.64 304.08,37.92 C304.68,37.32 304.92,36.48 304.92,35.64 C304.92,34.68 304.68,33.84 304.08,33.24 C303.48,32.52 302.52,32.16 301.32,32.16 Z M302.76,38.04 C302.4,38.52 301.92,38.64 301.32,38.64 C301.08,38.64 300.96,38.64 300.84,38.52 C300.72,38.4 300.72,38.28 300.72,38.04 L300.72,33.12 C300.72,32.88 300.72,32.76 300.84,32.76 C300.96,32.64 301.08,32.64 301.32,32.64 C302.16,32.64 302.64,33 303,33.84 C303.24,34.32 303.36,34.92 303.36,35.64 C303.36,36.84 303.12,37.56 302.76,38.04 Z" id="Shape"></path>
                    <path d="M308.4,37.68 C308.28,37.56 308.04,37.44 307.8,37.44 C307.56,37.44 307.32,37.56 307.2,37.68 C307.08,37.8 306.96,38.04 306.96,38.28 C306.96,38.52 307.08,38.76 307.2,38.88 C307.32,39 307.56,39.12 307.8,39.12 C308.04,39.12 308.28,39 308.4,38.88 C308.52,38.76 308.64,38.52 308.64,38.28 C308.64,38.04 308.52,37.8 308.4,37.68 Z" id="Shape"></path>
                </g>
                <path d="M48.36,19.68 C48,8.64 39,0 27.84,0 C18.6,0 10.8,6.12 8.4,14.52 C11.16,7.08 18.12,1.8 26.64,1.68 C36.96,1.68 45.36,9.48 46.2,19.68 L48.36,19.68 Z M45.24,26.04 L47.64,26.04 C47.64,26.04 47.4,26.76 47.04,27.36 C46.68,27.96 45.72,29.52 43.8,30.84 C42,32.16 40.32,32.88 36.96,32.64 C33.48,32.4 30,30.96 27.84,30.24 C25.68,29.52 22.8,28.44 19.56,29.28 C16.32,30.12 14.76,31.2 13.56,31.92 C12.48,32.76 11.88,33.12 11.88,33.12 C11.88,33.12 11.4,32.52 10.92,31.8 C10.44,31.08 9.84,30 9.84,30 C9.84,30 11.52,29.16 12.84,28.56 C14.28,27.96 16.44,27.24 18.6,27 C20.76,26.76 23.76,27.12 26.28,27.6 C28.8,28.2 31.08,28.92 33.72,29.52 C36.36,30.12 39.36,30.12 41.04,29.4 C42.72,28.68 43.8,27.6 44.28,27 C45,26.52 45.24,26.04 45.24,26.04 L45.24,26.04 Z M45.84,30.24 C45.84,30.24 45.48,30.84 44.88,31.44 C44.16,32.04 43.44,32.76 42.48,33.36 C41.52,33.96 40.68,34.56 39.36,35.16 C38.04,35.76 36,36.36 33.72,36.36 C31.44,36.36 28.32,35.52 26.52,35.04 C24.72,34.56 23.16,33.96 21.36,33.84 C19.44,33.72 17.88,34.44 16.92,35.04 C15.96,35.52 15.24,36.24 15.24,36.24 C15.24,36.24 14.64,35.64 14.16,35.28 C13.68,34.92 13.08,34.2 13.08,34.2 C13.08,34.2 14.16,33.36 15.12,32.64 C16.08,32.04 17.64,31.08 19.56,30.72 C21.48,30.36 23.28,30.36 25.2,30.84 C27.12,31.32 29.04,32.04 30.48,32.64 C31.92,33.24 34.92,34.08 36.24,34.2 C37.56,34.32 39.72,34.08 40.56,33.72 C41.4,33.48 42.96,32.64 43.8,32.04 C44.52,31.56 45.84,30.24 45.84,30.24 L45.84,30.24 Z M43.2,33.96 C43.2,33.96 42.24,35.16 41.4,35.76 C40.56,36.36 39.72,37.2 38.76,37.8 C37.8,38.28 36.84,38.88 35.76,39.36 C34.56,39.72 32.4,40.56 30,40.8 C27.6,41.04 25.44,41.04 22.68,40.2 C20.16,39.48 19.08,38.88 18.12,38.28 C17.16,37.8 16.56,37.32 16.56,37.32 C16.56,37.32 17.4,36.48 18.24,36.12 C18.96,35.76 20.28,35.28 21.72,35.52 C23.16,35.76 25.2,36.36 26.64,36.96 C28.2,37.56 31.56,38.04 33.36,38.04 C35.16,38.04 36.96,37.56 38.28,36.96 C39.6,36.36 40.68,35.76 41.52,35.16 C42.36,34.68 43.2,33.96 43.2,33.96 L43.2,33.96 Z M24.48,25.08 L27.72,4.56 L31.08,25.2 C31.08,25.2 28.44,19.08 28.2,18.72 C27.96,18.24 27.48,18.12 27.24,18.72 C27,19.2 24.48,25.08 24.48,25.08 L24.48,25.08 Z M29.64,25.08 C29.64,25.08 28.2,21.24 28.08,21 C27.96,20.76 27.48,20.76 27.36,21 C27.24,21.36 25.8,25.08 25.8,25.08 L29.64,25.08 Z M7.68,25.08 L7.2,23.4 L11.52,23.4 L9.48,15.96 L1.08,14.4 L4.68,25.08 L7.68,25.08 Z M44.4,25.08 L45.12,23.04 L43.44,23.04 L43.2,23.76 L41.28,23.76 L42.12,21.48 L44.04,21.6 L43.68,22.44 L45.36,22.44 L46.2,20.4 L41.16,20.16 L39.36,25.08 L44.4,25.08 Z M36.24,25.08 L37.92,25.08 L39.84,20.04 L38.16,19.92 L36.24,25.08 L36.24,25.08 Z M35.04,25.08 L32.4,25.08 L31.56,19.68 L33.12,19.8 L33.84,23.88 L35.4,19.92 L37.08,20.04 L35.04,25.08 L35.04,25.08 Z M19.2,25.08 L20.88,25.08 L20.4,22.2 L22.32,25.08 L23.52,25.08 L24.24,19.32 L22.44,19.2 L22.2,22.08 L19.8,19.08 L17.88,18.96 L19.2,25.08 L19.2,25.08 Z M18,25.08 L17.64,23.52 L14.52,23.52 L14.28,22.56 L17.52,22.68 L17.28,21.36 L14.04,21.24 L13.8,20.16 L17.16,20.4 L16.8,19.08 L11.4,18.84 L13.2,25.32 L18,25.08 Z M6.36,20.52 L8.04,20.52 L7.44,18.36 L5.76,18.24 L6.36,20.52 Z M47.16,20.4 L52.08,20.64 L50.52,24.96 L45.6,24.96 L47.16,20.4 Z M48.24,21.84 L50.04,21.84 L49.32,23.88 L47.4,23.88 L48.24,21.84 Z" id="XMLID_15194_"></path>
            </g>
        </g>
    </g>
</svg>